#define xplot_icon_width 48
#define xplot_icon_height 48
static unsigned char xplot_icon_bits[] = {
  0xff, 0xff, 0xff, 0xff, 0xff, 0xff, 0x01, 0x00, 0x00, 0x07, 0x00, 0x80,
  0x01, 0x00, 0x00, 0x36, 0x00, 0x80, 0x01, 0x00, 0x00, 0x24, 0x00, 0x80,
  0x01, 0x00, 0x00, 0x24, 0x00, 0x80, 0x01, 0x00, 0x00, 0x6c, 0x00, 0x80,
  0x01, 0x00, 0x00, 0x4c, 0x00, 0x80, 0x01, 0x00, 0x00, 0x54, 0x00, 0x80,
  0x01, 0x00, 0x00, 0x94, 0x00, 0x80, 0x01, 0x00, 0x00, 0xbc, 0x00, 0x80,
  0x01, 0x00, 0x00, 0xb8, 0x00, 0x80, 0x01, 0x00, 0x00, 0xa8, 0x00, 0x80,
  0x01, 0x00, 0x00, 0xa8, 0x01, 0x80, 0x01, 0x00, 0x00, 0x28, 0x01, 0x80,
  0x01, 0x00, 0x00, 0xa8, 0x01, 0x80, 0x01, 0x00, 0x00, 0xa8, 0x01, 0x80,
  0x01, 0x00, 0x00, 0xa8, 0x00, 0x80, 0x01, 0x00, 0x00, 0xb8, 0x00, 0x80,
  0x01, 0x00, 0x00, 0xb8, 0x00, 0x80, 0x01, 0x00, 0x00, 0x9c, 0x00, 0x80,
  0x01, 0x00, 0x00, 0x8e, 0x00, 0x80, 0x01, 0x00, 0x00, 0xaa, 0x00, 0x80,
  0x01, 0x00, 0x00, 0xaa, 0x00, 0x80, 0x01, 0x00, 0x00, 0x2b, 0x00, 0x80,
  0x01, 0x00, 0x00, 0x2b, 0x00, 0x80, 0x01, 0x00, 0x00, 0x0b, 0x00, 0x80,
  0x01, 0x00, 0x80, 0x0b, 0x00, 0x80, 0x01, 0x00, 0xc0, 0x08, 0x00, 0x80,
  0x01, 0x00, 0x40, 0x0d, 0x00, 0x80, 0x01, 0x00, 0x40, 0x05, 0x00, 0x80,
  0x01, 0x00, 0xc0, 0x03, 0x00, 0x80, 0x01, 0x00, 0xe0, 0x03, 0x00, 0x80,
  0x01, 0x00, 0x20, 0x01, 0x00, 0x80, 0x01, 0x00, 0xe0, 0x00, 0x00, 0x80,
  0xff, 0xff, 0xff, 0xff, 0xff, 0xff, 0x00, 0x00, 0x00, 0x00, 0x00, 0x00,
  0x00, 0xef, 0x7e, 0x0e, 0x00, 0x00, 0x00, 0x46, 0xcc, 0x0c, 0x40, 0x00,
  0x00, 0x2e, 0xcc, 0x0c, 0x60, 0x00, 0x00, 0x1c, 0xcc, 0x8c, 0xf7, 0x00,
  0x00, 0x38, 0x7c, 0xcc, 0x6c, 0x00, 0x00, 0x74, 0x0c, 0xcc, 0x6c, 0x00,
  0x00, 0x62, 0x0c, 0xcc, 0x6c, 0x00, 0x00, 0xf7, 0x1e, 0x9e, 0xc7, 0x00,
  0x00, 0x00, 0x00, 0x00, 0x00, 0x00, 0x00, 0x00, 0x00, 0x00, 0x00, 0x00,
  0x00, 0x00, 0x00, 0x00, 0x00, 0x00, 0x00, 0x00, 0x00, 0x00, 0x00, 0x00,
  };
